# xmcd
#
# Track frame offsets: 
#        150
#        18887
#        35202
#        53502
#        75180
#        90497
#        108797
#        127392
#        146245
#        162402
#        180412
#        199710
#        218770
#        236175
#        253587
#        270187
#        289950
#        309595
#
# Disc length: 4388 seconds
#
# Revision: 1
# Processed by: cddbd v1.5.2PL0 Copyright (c) Steve Scherf et al.
# Submitted via: ExactAudioCopy v0.99pb4
#
DISCID=f8112212
DTITLE=Various Artist - DJ Hits 22
DYEAR=1995
DGENRE=Dance
TTITLE0=Whigfield - Saturday Night (Radio Mix)
TTITLE1=Bass Bumpers - Good Fun (7" Radio Mix)
TTITLE2=Marie Claire D'Ubaldo - The Rhythm Is Magic (Album Version)
TTITLE3=Sophie B. Hawkins - Right Beside You
TTITLE4=East 17 - Steam (Vapoureyes Mix)
TTITLE5=Andru Donalds - Mishael (Single Mix)
TTITLE6=Rock Steady Beat - Carry On (Radio Edit)
TTITLE7=Ophelia - Hand In Hand (Vocal Single Mix)
TTITLE8=B-Tronic - Power Of Love (Power Radio)
TTITLE9=Loft - Wake The World (Leon vs Coin Radio Cut)
TTITLE10=Snap - Welcome To Tomorrow (Are You Ready)
TTITLE11=The Tyrrel Corporation - You're Not Here (7" Edit)
TTITLE12=CJ Lewis - Best Of My Love (Radio Mix)
TTITLE13=Dawn Penn - Night And Day (Baby I Love You So) (Radio Edit)
TTITLE14=Michelle Dayle - Sweetness (Radio Mix)
TTITLE15=Billy Idol - Speed (Single Version)
TTITLE16=Wet Wet Wet - Good Night Girl' 94
TTITLE17=Luther Vandross and Mariah Carey - Endless Love
EXTD=
EXTT0=
EXTT1=
EXTT2=
EXTT3=
EXTT4=
EXTT5=
EXTT6=
EXTT7=
EXTT8=
EXTT9=
EXTT10=
EXTT11=
EXTT12=
EXTT13=
EXTT14=
EXTT15=
EXTT16=
EXTT17=
PLAYORDER=
